<?xml version="1.0" encoding="utf-8" ?>
<svg baseProfile="tiny" height="225" version="1.2" width="335" xmlns="http://www.w3.org/2000/svg" xmlns:ev="http://www.w3.org/2001/xml-events" xmlns:xlink="http://www.w3.org/1999/xlink"><defs /><rect fill="rgb(127,127,127)" fill-opacity="1" height="15" stroke="rgb(127,127,127)" width="5" x="0" y="0" /><rect fill="rgb(13,41,84)" fill-opacity="1" height="15" stroke="rgb(13,41,84)" width="5" x="0" y="15" /><rect fill="rgb(13,41,84)" fill-opacity="1" height="15" stroke="rgb(13,41,84)" width="5" x="0" y="30" /><rect fill="rgb(127,127,127)" fill-opacity="1" height="15" stroke="rgb(127,127,127)" width="5" x="5" y="0" /><rect fill="rgb(13,41,84)" fill-opacity="1" height="15" stroke="rgb(13,41,84)" width="5" x="5" y="15" /><rect fill="rgb(13,41,84)" fill-opacity="1" height="15" stroke="rgb(13,41,84)" width="5" x="5" y="30" /><rect fill="rgb(13,41,84)" fill-opacity="1" height="15" stroke="rgb(13,41,84)" width="5" x="5" y="45" /><rect fill="rgb(127,127,127)" fill-opacity="1" height="15" stroke="rgb(127,127,127)" width="5" x="10" y="0" /><rect fill="rgb(13,41,84)" fill-opacity="1" height="15" stroke="rgb(13,41,84)" width="5" x="10" y="15" /><rect fill="rgb(13,41,84)" fill-opacity="1" height="15" stroke="rgb(13,41,84)" width="5" x="10" y="30" /><rect fill="rgb(13,41,84)" fill-opacity="1" height="15" stroke="rgb(13,41,84)" width="5" x="10" y="45" /><rect fill="rgb(127,127,127)" fill-opacity="1" height="15" stroke="rgb(127,127,127)" width="5" x="15" y="0" /><rect fill="rgb(13,41,84)" fill-opacity="1" height="15" stroke="rgb(13,41,84)" width="5" x="15" y="15" /><rect fill="rgb(13,41,84)" fill-opacity="1" height="15" stroke="rgb(13,41,84)" width="5" x="15" y="30" /><rect fill="rgb(13,41,84)" fill-opacity="1" height="15" stroke="rgb(13,41,84)" width="5" x="15" y="45" /><rect fill="rgb(138,79,6)" fill-opacity="1" height="15" stroke="rgb(138,79,6)" width="315" x="20" y="0" /><rect fill="rgb(127,127,127)" fill-opacity="1" height="15" stroke="rgb(127,127,127)" width="5" x="20" y="15" /><rect fill="rgb(176,248,92)" fill-opacity="1" height="15" stroke="rgb(176,248,92)" width="5" x="25" y="15" /><rect fill="rgb(172,103,161)" fill-opacity="1" height="15" stroke="rgb(172,103,161)" width="305" x="30" y="15" /><rect fill="rgb(127,127,127)" fill-opacity="1" height="15" stroke="rgb(127,127,127)" width="5" x="30" y="30" /><rect fill="rgb(127,127,127)" fill-opacity="1" height="15" stroke="rgb(127,127,127)" width="5" x="35" y="30" /><rect fill="rgb(176,248,92)" fill-opacity="1" height="15" stroke="rgb(176,248,92)" width="5" x="40" y="30" /><rect fill="rgb(0,0,0)" fill-opacity="1" height="15" stroke="rgb(0,0,0)" width="10" x="45" y="30" /><rect fill="rgb(1,194,234)" fill-opacity="1" height="15" stroke="rgb(1,194,234)" width="5" x="45" y="45" /><rect fill="rgb(250,127,94)" fill-opacity="1" height="15" stroke="rgb(250,127,94)" width="5" x="45" y="60" /><rect fill="rgb(176,248,92)" fill-opacity="1" height="15" stroke="rgb(176,248,92)" width="5" x="45" y="75" /><rect fill="rgb(176,248,92)" fill-opacity="1" height="15" stroke="rgb(176,248,92)" width="5" x="50" y="45" /><rect fill="rgb(35,90,120)" fill-opacity="1" height="15" stroke="rgb(35,90,120)" width="5" x="55" y="30" /><rect fill="rgb(71,2,75)" fill-opacity="1" height="15" stroke="rgb(71,2,75)" width="275" x="60" y="30" /><rect fill="rgb(255,35,195)" fill-opacity="1" height="15" stroke="rgb(255,35,195)" width="25" x="60" y="45" /><rect fill="rgb(67,218,186)" fill-opacity="1" height="15" stroke="rgb(67,218,186)" width="25" x="60" y="60" /><rect fill="rgb(100,136,101)" fill-opacity="1" height="15" stroke="rgb(100,136,101)" width="25" x="60" y="75" /><rect fill="rgb(250,127,94)" fill-opacity="1" height="15" stroke="rgb(250,127,94)" width="5" x="60" y="90" /><rect fill="rgb(176,248,92)" fill-opacity="1" height="15" stroke="rgb(176,248,92)" width="5" x="60" y="105" /><rect fill="rgb(176,248,92)" fill-opacity="1" height="15" stroke="rgb(176,248,92)" width="5" x="65" y="90" /><rect fill="rgb(67,69,254)" fill-opacity="1" height="15" stroke="rgb(67,69,254)" width="15" x="70" y="90" /><rect fill="rgb(250,127,94)" fill-opacity="1" height="15" stroke="rgb(250,127,94)" width="5" x="70" y="105" /><rect fill="rgb(176,248,92)" fill-opacity="1" height="15" stroke="rgb(176,248,92)" width="5" x="70" y="120" /><rect fill="rgb(0,0,0)" fill-opacity="1" height="15" stroke="rgb(0,0,0)" width="10" x="75" y="105" /><rect fill="rgb(0,0,128)" fill-opacity="1" height="15" stroke="rgb(0,0,128)" width="5" x="75" y="120" /><rect fill="rgb(176,248,92)" fill-opacity="1" height="15" stroke="rgb(176,248,92)" width="5" x="75" y="135" /><rect fill="rgb(131,251,224)" fill-opacity="1" height="15" stroke="rgb(131,251,224)" width="5" x="80" y="120" /><rect fill="rgb(255,35,195)" fill-opacity="1" height="15" stroke="rgb(255,35,195)" width="20" x="85" y="45" /><rect fill="rgb(67,218,186)" fill-opacity="1" height="15" stroke="rgb(67,218,186)" width="20" x="85" y="60" /><rect fill="rgb(100,136,101)" fill-opacity="1" height="15" stroke="rgb(100,136,101)" width="20" x="85" y="75" /><rect fill="rgb(250,127,94)" fill-opacity="1" height="15" stroke="rgb(250,127,94)" width="5" x="85" y="90" /><rect fill="rgb(176,248,92)" fill-opacity="1" height="15" stroke="rgb(176,248,92)" width="5" x="85" y="105" /><rect fill="rgb(176,248,92)" fill-opacity="1" height="15" stroke="rgb(176,248,92)" width="5" x="90" y="90" /><rect fill="rgb(67,69,254)" fill-opacity="1" height="15" stroke="rgb(67,69,254)" width="10" x="95" y="90" /><rect fill="rgb(250,127,94)" fill-opacity="1" height="15" stroke="rgb(250,127,94)" width="5" x="95" y="105" /><rect fill="rgb(176,248,92)" fill-opacity="1" height="15" stroke="rgb(176,248,92)" width="5" x="95" y="120" /><rect fill="rgb(162,58,192)" fill-opacity="1" height="15" stroke="rgb(162,58,192)" width="5" x="100" y="105" /><rect fill="rgb(84,51,107)" fill-opacity="1" height="15" stroke="rgb(84,51,107)" width="230" x="105" y="45" /><rect fill="rgb(98,6,153)" fill-opacity="1" height="15" stroke="rgb(98,6,153)" width="20" x="105" y="60" /><rect fill="rgb(246,155,214)" fill-opacity="1" height="15" stroke="rgb(246,155,214)" width="10" x="105" y="75" /><rect fill="rgb(0,0,128)" fill-opacity="1" height="15" stroke="rgb(0,0,128)" width="5" x="105" y="90" /><rect fill="rgb(176,248,92)" fill-opacity="1" height="15" stroke="rgb(176,248,92)" width="5" x="105" y="105" /><rect fill="rgb(176,248,92)" fill-opacity="1" height="15" stroke="rgb(176,248,92)" width="5" x="110" y="90" /><rect fill="rgb(246,155,214)" fill-opacity="1" height="15" stroke="rgb(246,155,214)" width="10" x="115" y="75" /><rect fill="rgb(0,0,128)" fill-opacity="1" height="15" stroke="rgb(0,0,128)" width="5" x="115" y="90" /><rect fill="rgb(176,248,92)" fill-opacity="1" height="15" stroke="rgb(176,248,92)" width="5" x="115" y="105" /><rect fill="rgb(176,248,92)" fill-opacity="1" height="15" stroke="rgb(176,248,92)" width="5" x="120" y="90" /><rect fill="rgb(71,2,75)" fill-opacity="1" height="15" stroke="rgb(71,2,75)" width="210" x="125" y="60" /><rect fill="rgb(255,35,195)" fill-opacity="1" height="15" stroke="rgb(255,35,195)" width="20" x="125" y="75" /><rect fill="rgb(67,218,186)" fill-opacity="1" height="15" stroke="rgb(67,218,186)" width="20" x="125" y="90" /><rect fill="rgb(100,136,101)" fill-opacity="1" height="15" stroke="rgb(100,136,101)" width="20" x="125" y="105" /><rect fill="rgb(1,194,234)" fill-opacity="1" height="15" stroke="rgb(1,194,234)" width="5" x="125" y="120" /><rect fill="rgb(250,127,94)" fill-opacity="1" height="15" stroke="rgb(250,127,94)" width="5" x="125" y="135" /><rect fill="rgb(176,248,92)" fill-opacity="1" height="15" stroke="rgb(176,248,92)" width="5" x="125" y="150" /><rect fill="rgb(176,248,92)" fill-opacity="1" height="15" stroke="rgb(176,248,92)" width="5" x="130" y="120" /><rect fill="rgb(246,155,214)" fill-opacity="1" height="15" stroke="rgb(246,155,214)" width="10" x="135" y="120" /><rect fill="rgb(0,0,128)" fill-opacity="1" height="15" stroke="rgb(0,0,128)" width="5" x="135" y="135" /><rect fill="rgb(176,248,92)" fill-opacity="1" height="15" stroke="rgb(176,248,92)" width="5" x="135" y="150" /><rect fill="rgb(176,248,92)" fill-opacity="1" height="15" stroke="rgb(176,248,92)" width="5" x="140" y="135" /><rect fill="rgb(140,243,157)" fill-opacity="1" height="15" stroke="rgb(140,243,157)" width="185" x="145" y="75" /><rect fill="rgb(71,2,75)" fill-opacity="1" height="15" stroke="rgb(71,2,75)" width="155" x="145" y="90" /><rect fill="rgb(255,35,195)" fill-opacity="1" height="15" stroke="rgb(255,35,195)" width="15" x="145" y="105" /><rect fill="rgb(67,218,186)" fill-opacity="1" height="15" stroke="rgb(67,218,186)" width="15" x="145" y="120" /><rect fill="rgb(100,136,101)" fill-opacity="1" height="15" stroke="rgb(100,136,101)" width="15" x="145" y="135" /><rect fill="rgb(250,127,94)" fill-opacity="1" height="15" stroke="rgb(250,127,94)" width="5" x="145" y="150" /><rect fill="rgb(176,248,92)" fill-opacity="1" height="15" stroke="rgb(176,248,92)" width="5" x="145" y="165" /><rect fill="rgb(176,248,92)" fill-opacity="1" height="15" stroke="rgb(176,248,92)" width="5" x="150" y="150" /><rect fill="rgb(67,69,254)" fill-opacity="1" height="15" stroke="rgb(67,69,254)" width="5" x="155" y="150" /><rect fill="rgb(250,127,94)" fill-opacity="1" height="15" stroke="rgb(250,127,94)" width="5" x="155" y="165" /><rect fill="rgb(176,248,92)" fill-opacity="1" height="15" stroke="rgb(176,248,92)" width="5" x="155" y="180" /><rect fill="rgb(255,35,195)" fill-opacity="1" height="15" stroke="rgb(255,35,195)" width="20" x="160" y="105" /><rect fill="rgb(67,218,186)" fill-opacity="1" height="15" stroke="rgb(67,218,186)" width="20" x="160" y="120" /><rect fill="rgb(100,136,101)" fill-opacity="1" height="15" stroke="rgb(100,136,101)" width="20" x="160" y="135" /><rect fill="rgb(250,127,94)" fill-opacity="1" height="15" stroke="rgb(250,127,94)" width="5" x="160" y="150" /><rect fill="rgb(176,248,92)" fill-opacity="1" height="15" stroke="rgb(176,248,92)" width="5" x="160" y="165" /><rect fill="rgb(176,248,92)" fill-opacity="1" height="15" stroke="rgb(176,248,92)" width="5" x="165" y="150" /><rect fill="rgb(67,69,254)" fill-opacity="1" height="15" stroke="rgb(67,69,254)" width="10" x="170" y="150" /><rect fill="rgb(250,127,94)" fill-opacity="1" height="15" stroke="rgb(250,127,94)" width="5" x="170" y="165" /><rect fill="rgb(176,248,92)" fill-opacity="1" height="15" stroke="rgb(176,248,92)" width="5" x="170" y="180" /><rect fill="rgb(162,58,192)" fill-opacity="1" height="15" stroke="rgb(162,58,192)" width="5" x="175" y="165" /><rect fill="rgb(255,35,195)" fill-opacity="1" height="15" stroke="rgb(255,35,195)" width="55" x="180" y="105" /><rect fill="rgb(246,155,214)" fill-opacity="1" height="15" stroke="rgb(246,155,214)" width="55" x="180" y="120" /><rect fill="rgb(246,155,214)" fill-opacity="1" height="15" stroke="rgb(246,155,214)" width="45" x="180" y="135" /><rect fill="rgb(246,155,214)" fill-opacity="1" height="15" stroke="rgb(246,155,214)" width="35" x="180" y="150" /><rect fill="rgb(246,155,214)" fill-opacity="1" height="15" stroke="rgb(246,155,214)" width="25" x="180" y="165" /><rect fill="rgb(246,155,214)" fill-opacity="1" height="15" stroke="rgb(246,155,214)" width="15" x="180" y="180" /><rect fill="rgb(0,0,128)" fill-opacity="1" height="15" stroke="rgb(0,0,128)" width="5" x="180" y="195" /><rect fill="rgb(176,248,92)" fill-opacity="1" height="15" stroke="rgb(176,248,92)" width="5" x="180" y="210" /><rect fill="rgb(176,248,92)" fill-opacity="1" height="15" stroke="rgb(176,248,92)" width="5" x="185" y="195" /><rect fill="rgb(162,58,192)" fill-opacity="1" height="15" stroke="rgb(162,58,192)" width="5" x="190" y="195" /><rect fill="rgb(176,248,92)" fill-opacity="1" height="15" stroke="rgb(176,248,92)" width="5" x="195" y="180" /><rect fill="rgb(162,58,192)" fill-opacity="1" height="15" stroke="rgb(162,58,192)" width="5" x="200" y="180" /><rect fill="rgb(176,248,92)" fill-opacity="1" height="15" stroke="rgb(176,248,92)" width="5" x="205" y="165" /><rect fill="rgb(0,0,128)" fill-opacity="1" height="15" stroke="rgb(0,0,128)" width="5" x="210" y="165" /><rect fill="rgb(176,248,92)" fill-opacity="1" height="15" stroke="rgb(176,248,92)" width="5" x="210" y="180" /><rect fill="rgb(176,248,92)" fill-opacity="1" height="15" stroke="rgb(176,248,92)" width="5" x="215" y="150" /><rect fill="rgb(162,58,192)" fill-opacity="1" height="15" stroke="rgb(162,58,192)" width="5" x="220" y="150" /><rect fill="rgb(176,248,92)" fill-opacity="1" height="15" stroke="rgb(176,248,92)" width="5" x="225" y="135" /><rect fill="rgb(162,58,192)" fill-opacity="1" height="15" stroke="rgb(162,58,192)" width="5" x="230" y="135" /><rect fill="rgb(255,35,195)" fill-opacity="1" height="15" stroke="rgb(255,35,195)" width="30" x="235" y="105" /><rect fill="rgb(246,155,214)" fill-opacity="1" height="15" stroke="rgb(246,155,214)" width="30" x="235" y="120" /><rect fill="rgb(0,0,128)" fill-opacity="1" height="15" stroke="rgb(0,0,128)" width="5" x="235" y="135" /><rect fill="rgb(176,248,92)" fill-opacity="1" height="15" stroke="rgb(176,248,92)" width="5" x="235" y="150" /><rect fill="rgb(176,248,92)" fill-opacity="1" height="15" stroke="rgb(176,248,92)" width="5" x="240" y="135" /><rect fill="rgb(0,0,128)" fill-opacity="1" height="15" stroke="rgb(0,0,128)" width="5" x="245" y="135" /><rect fill="rgb(176,248,92)" fill-opacity="1" height="15" stroke="rgb(176,248,92)" width="5" x="245" y="150" /><rect fill="rgb(131,251,224)" fill-opacity="1" height="15" stroke="rgb(131,251,224)" width="5" x="250" y="135" /><rect fill="rgb(131,251,224)" fill-opacity="1" height="15" stroke="rgb(131,251,224)" width="5" x="255" y="135" /><rect fill="rgb(0,0,128)" fill-opacity="1" height="15" stroke="rgb(0,0,128)" width="5" x="260" y="135" /><rect fill="rgb(176,248,92)" fill-opacity="1" height="15" stroke="rgb(176,248,92)" width="5" x="260" y="150" /><rect fill="rgb(255,35,195)" fill-opacity="1" height="15" stroke="rgb(255,35,195)" width="15" x="265" y="105" /><rect fill="rgb(246,155,214)" fill-opacity="1" height="15" stroke="rgb(246,155,214)" width="15" x="265" y="120" /><rect fill="rgb(0,0,128)" fill-opacity="1" height="15" stroke="rgb(0,0,128)" width="5" x="265" y="135" /><rect fill="rgb(176,248,92)" fill-opacity="1" height="15" stroke="rgb(176,248,92)" width="5" x="265" y="150" /><rect fill="rgb(176,248,92)" fill-opacity="1" height="15" stroke="rgb(176,248,92)" width="5" x="270" y="135" /><rect fill="rgb(0,0,128)" fill-opacity="1" height="15" stroke="rgb(0,0,128)" width="5" x="275" y="135" /><rect fill="rgb(176,248,92)" fill-opacity="1" height="15" stroke="rgb(176,248,92)" width="5" x="275" y="150" /><rect fill="rgb(255,35,195)" fill-opacity="1" height="15" stroke="rgb(255,35,195)" width="10" x="280" y="105" /><rect fill="rgb(246,155,214)" fill-opacity="1" height="15" stroke="rgb(246,155,214)" width="10" x="280" y="120" /><rect fill="rgb(0,0,128)" fill-opacity="1" height="15" stroke="rgb(0,0,128)" width="5" x="280" y="135" /><rect fill="rgb(176,248,92)" fill-opacity="1" height="15" stroke="rgb(176,248,92)" width="5" x="280" y="150" /><rect fill="rgb(176,248,92)" fill-opacity="1" height="15" stroke="rgb(176,248,92)" width="5" x="285" y="135" /><rect fill="rgb(255,35,195)" fill-opacity="1" height="15" stroke="rgb(255,35,195)" width="10" x="290" y="105" /><rect fill="rgb(246,155,214)" fill-opacity="1" height="15" stroke="rgb(246,155,214)" width="10" x="290" y="120" /><rect fill="rgb(0,0,128)" fill-opacity="1" height="15" stroke="rgb(0,0,128)" width="5" x="290" y="135" /><rect fill="rgb(176,248,92)" fill-opacity="1" height="15" stroke="rgb(176,248,92)" width="5" x="290" y="150" /><rect fill="rgb(176,248,92)" fill-opacity="1" height="15" stroke="rgb(176,248,92)" width="5" x="295" y="135" /><rect fill="rgb(0,128,0)" fill-opacity="1" height="15" stroke="rgb(0,128,0)" width="30" x="300" y="90" /><rect fill="rgb(0,0,0)" fill-opacity="1" height="15" stroke="rgb(0,0,0)" width="10" x="300" y="105" /><rect fill="rgb(250,127,94)" fill-opacity="1" height="15" stroke="rgb(250,127,94)" width="5" x="300" y="120" /><rect fill="rgb(176,248,92)" fill-opacity="1" height="15" stroke="rgb(176,248,92)" width="5" x="300" y="135" /><rect fill="rgb(176,248,92)" fill-opacity="1" height="15" stroke="rgb(176,248,92)" width="5" x="305" y="120" /><rect fill="rgb(71,2,75)" fill-opacity="1" height="15" stroke="rgb(71,2,75)" width="20" x="310" y="105" /><rect fill="rgb(255,35,195)" fill-opacity="1" height="15" stroke="rgb(255,35,195)" width="20" x="310" y="120" /><rect fill="rgb(246,155,214)" fill-opacity="1" height="15" stroke="rgb(246,155,214)" width="20" x="310" y="135" /><rect fill="rgb(128,128,0)" fill-opacity="1" height="15" stroke="rgb(128,128,0)" width="10" x="310" y="150" /><rect fill="rgb(0,0,128)" fill-opacity="1" height="15" stroke="rgb(0,0,128)" width="5" x="310" y="165" /><rect fill="rgb(176,248,92)" fill-opacity="1" height="15" stroke="rgb(176,248,92)" width="5" x="310" y="180" /><rect fill="rgb(176,248,92)" fill-opacity="1" height="15" stroke="rgb(176,248,92)" width="5" x="315" y="165" /><rect fill="rgb(176,248,92)" fill-opacity="1" height="15" stroke="rgb(176,248,92)" width="5" x="320" y="150" /><rect fill="rgb(0,0,128)" fill-opacity="1" height="15" stroke="rgb(0,0,128)" width="5" x="325" y="150" /><rect fill="rgb(176,248,92)" fill-opacity="1" height="15" stroke="rgb(176,248,92)" width="5" x="325" y="165" /><rect fill="rgb(127,127,127)" fill-opacity="1" height="15" stroke="rgb(127,127,127)" width="5" x="330" y="75" /></svg>